<?xml version="1.0" encoding="utf-8"?>
<!-- Generator: Adobe Illustrator 24.0.3, SVG Export Plug-In . SVG Version: 6.00 Build 0)  -->
<svg version="1.1" id="Layer_1" xmlns="http://www.w3.org/2000/svg" xmlns:xlink="http://www.w3.org/1999/xlink" x="0px" y="0px"
	 viewBox="0 0 767.7 1056.9" style="enable-background:new 0 0 767.7 1056.9;" xml:space="preserve">
<style type="text/css">
	.st0{clip-path:url(#SVGID_2_);}
	.st1{opacity:0.1;}
	.st2{fill:#2E9CDE;}
	.st3{fill:#E58C1A;}
	.st4{fill:#1D1A50;}
	.st5{fill:#710A14;}
	.st6{fill:#0A1010;}
</style>
<title>logo-bot-left-cnr-bg</title>
<g>
	<defs>
		<rect id="SVGID_1_" x="-9.6" y="-331.4" width="1920" height="1390"/>
	</defs>
	<clipPath id="SVGID_2_">
		<use xlink:href="#SVGID_1_"  style="overflow:visible;"/>
	</clipPath>
	<g class="st0">
		<g class="st1">
			<path class="st2" d="M747.3,917.8c-3.6-27.7-10.9-62.6-26.1-92.4C671,725.7,554,703.5,503.9,693.8c-5.2-0.9-9.7-1.8-13.7-2.7
				c-5.5-0.6-45.9-6.1-80.2-42.2c-32.8-34.6-47.1-136.5-51.7-176.2l8.5,1.8c0,0-13.4-108.8-38.9-149.3
				c-25.2-40.4-80.2-122.5-108.5-153.2C157.8,105.5,85.1,65,50.8,52C25.9,42.6-24.6,18.5-50.4,6.1v81.4c26,5.3,50.9,14.8,73.8,28
				c48.6,28.3,116.4,90.3,140.7,118.5s72,86,90.3,119.4s24.3,102.4,24.3,102.4l1.2,0.3c1.5,25.2,0.3,49.8-0.6,73.5
				c-2.1,51.4-1.2,102.1,23.4,150.4c30.7,60.8,92.1,82,147.4,103.6c46.8,18.5,91.2,35.9,118.8,74.8c14.3,19.8,23.1,40.4,28.9,60.5
				l-7.3,137.6h165.6V917.5h-8.8V917.8z"/>
			<path class="st3" d="M588.1,1010.2v-0.3c4-37.1,3.3-92.7-31.9-141.6c-25.2-35-67.2-51.7-111.5-69
				c-58-22.8-117.9-46.5-151.6-112.8c-26.4-52-20.4-105.2-21.9-156.5c-3-107.6,1.2-138.9-39.2-199.7l0,0v-23.7h-12.2
				c-11.2-16.7-32.8-43.8-74.8-87.5C56.9,127,57.8,139.2,16.5,118.8c-20.7-10-46.2-21.2-66.8-29.8v76.9c5.5,1.5,11.2,3,18.2,4.9
				c37.4,9.1,64.7,39.5,100.3,65.9c21,15.5,55,47.1,79.3,70.2h-31.6v47.4h64.4c34.6,59.9,44.4,132.8,39.5,200
				c-6.1,86.6-18.8,172.6,67.5,224c59.9,35.6,112.8,72,150.4,117.6c29.5,35.9,45.3,73.5,47.7,114.3h-9.1v46.8H592v-46.8
				L588.1,1010.2L588.1,1010.2z"/>
			<path class="st4" d="M827.9,725.4"/>
			<path class="st5" d="M465.6,1056.6c22.2-120.3-68.4-190.5-188.7-268.9c-86.6-56.5-80.2-147.1-73.9-234.6
				c4.9-66.2,8.8-139.8-25.2-196.3l-2.1,2.1v-11.2L145,306.9l-30.7-33.7l-97.6-78.4l-66.2-35.6V1057h515.1L465.6,1056.6z"/>
			<path class="st6" d="M178.4,362.5c0.9,1.5,1.8,3.4,3,5.2l0,0c30.1,55,25.5,121.2,21.3,185.1c-6.1,87.5-12.2,178.1,74.4,234.6
				c120.4,78.4,210.9,148.6,188.7,269h16.7c10.6-59,1.8-108.5-38.6-157.4c-37.4-45.6-104.5-90-162.9-127.9
				c-78.4-51-63.8-126.4-57.7-213c3.3-50.1,3.3-100-11.2-146.5c0,0.2,0.1,0.3,0.3,0.3c-3.4-12-7.4-23.7-12.1-35.2
				c-6.7-15.8-16.7-32.8-23.4-41.6c-3.9-5.2-28.3-43.1-94.2-99.1s-132.1-81.5-132.1-81.5v10.9c0,0,75.4,40.4,122.8,79
				s79.3,80.5,83.9,86.3C161.1,335.8,172.4,352.8,178.4,362.5z"/>
			<path class="st6" d="M579,860.3c-28-38.9-81.4-58-128.2-76.3c-55.3-21.6-112.1-44.1-143.1-104.8c-24.3-48-23.4-98.2-22.2-151
				c1.5-60.8,2.7-123.4-33.7-188.7v-0.9c0,0-23.1-44.7-65.6-93.9S94.9,147.4,53.2,123.1C18,103-51,78.4-51,78.4s3,13.7,1.5,15.2
				c0,0,93.6,32.2,137.4,73.2s87.5,94.2,99.7,104.8c12.1,10.6,45.6,61.4,57.7,81.8c0.9,1.2,1.5,2.4,2.1,3.3
				c28,58.4,22.8,115.2,21.9,170.8c-1.2,55-2.4,107,24,158.9c33.7,66.2,93.6,90,151.6,112.7c44.4,17.6,86.6,34,111.5,69
				c45.3,63.2,33.4,137,28.3,168.7c-1,6.5-1.6,13.1-1.8,19.8h16.4c0.3-5.5,0.9-13.4,1.5-17C606.3,1006.2,628.5,929,579,860.3z"/>
			<path class="st6" d="M765.9,931.1c0-0.9-0.3-1.5-0.3-2.1c-3-30.4-10.6-73.5-29.5-110.9c-53.8-107-145.6-127-198.1-137
				c-5.5-0.9-45.6-6.1-45.6-6.1c-0.3,0-38.3-3.7-70.2-37.1c-35.3-37.1-47.4-168-48.9-181.7c-4-35.5-28-124.6-57.1-169.3
				c-27-41.3-66.5-82.3-110.9-138.6c-24.3-31-44.7-51.1-85.7-76.3C56.3,33.7-49.8,0-49.8,0v16.1c0,0,62.3,24.6,102.7,38.9
				c39.8,14,106.7,60.8,127.9,86.6s65.6,77.2,77.8,93c9.7,13.1,80.8,100.3,98.5,222.5c1.8,13.7,2.7,26.7,4,39.2
				c5.8,62,10,110.9,49.5,151.9c34.3,36.2,74.5,41.6,80.2,42.2c3.6,0.9,8.2,1.8,13.7,2.7c50.1,9.7,167.1,31.9,217.3,131.9
				c19.2,38,25.8,83.6,28.3,113c0,0,1.5,27.3,0.6,55c-0.6,14-2.7,47.1-4,62.9h18.5c0.6-11.5,1.8-32.5,2.1-49.2
				C767.7,982.8,768.3,947.9,765.9,931.1z"/>
		</g>
	</g>
</g>
</svg>
